HIERARCHY
ROOT Hips
{
  OFFSET 5.84602e-005 68.8428 3.50346
  CHANNELS 6 Xposition Yposition Zposition Zrotation Xrotation Yrotation
  JOINT Spine
  {
    OFFSET 0 8.597 -4.6522
    CHANNELS 3 Zrotation Xrotation Yrotation
    JOINT Spine1
    {
      OFFSET 0 7.8454 0.4098
      CHANNELS 3 Zrotation Xrotation Yrotation
      JOINT Spine2
      {
        OFFSET 0 9.7078 -2.1609
        CHANNELS 3 Zrotation Xrotation Yrotation
        JOINT Neck
        {
          OFFSET 0 21.8761 -0.4549
          CHANNELS 3 Zrotation Xrotation Yrotation
          JOINT Head
          {
            OFFSET 0 12.3537 3.3602
            CHANNELS 3 Zrotation Xrotation Yrotation
            End Site
            {
              OFFSET 0.0001 18.9506 0.5657
            }
          }
        }
        JOINT LeftShoulder
        {
          OFFSET 2.2086 21.1115 7.2329
          CHANNELS 3 Zrotation Xrotation Yrotation
          JOINT LeftArm
          {
            OFFSET 13.1193 3.0282 -4.8998
            CHANNELS 3 Zrotation Xrotation Yrotation
            JOINT LeftForeArm
            {
              OFFSET 27.4081 -0.0973053 -0.2375
              CHANNELS 3 Zrotation Xrotation Yrotation
              JOINT LeftHand
              {
                OFFSET 22.8641 0.0662994 -0.1369
                CHANNELS 3 Zrotation Xrotation Yrotation
                JOINT LeftHandIndex1
                {
                  OFFSET 8.8614 0.775009 2.4612
                  CHANNELS 3 Zrotation Xrotation Yrotation
                  JOINT LeftHandIndex2
                  {
                    OFFSET 3.3146 -0.808304 0.5841
                    CHANNELS 3 Zrotation Xrotation Yrotation
                    JOINT LeftHandIndex3
                    {
                      OFFSET 2.2628 -0.552002 0.3989
                      CHANNELS 3 Zrotation Xrotation Yrotation
                      End Site
                      {
                        OFFSET 1.6102 -0.4807 0.2612
                      }
                    }
                  }
                }
                JOINT LeftHandMiddle1
                {
                  OFFSET 8.9937 0.895004 0.2143
                  CHANNELS 3 Zrotation Xrotation Yrotation
                  JOINT LeftHandMiddle2
                  {
                    OFFSET 4.0984 0.0113983 -0.0242
                    CHANNELS 3 Zrotation Xrotation Yrotation
                    JOINT LeftHandMiddle3
                    {
                      OFFSET 2.2716 0.00689697 -0.0138001
                      CHANNELS 3 Zrotation Xrotation Yrotation
                      End Site
                      {
                        OFFSET 2.0404 -0.1441 0.0027
                      }
                    }
                  }
                }
                JOINT LeftHandRing1
                {
                  OFFSET 8.5234 0.597198 -2.0164
                  CHANNELS 3 Zrotation Xrotation Yrotation
                  JOINT LeftHandRing2
                  {
                    OFFSET 3.7188 -0.188293 -0.2328
                    CHANNELS 3 Zrotation Xrotation Yrotation
                    JOINT LeftHandRing3
                    {
                      OFFSET 2.1191 -0.106598 -0.1332
                      CHANNELS 3 Zrotation Xrotation Yrotation
                      End Site
                      {
                        OFFSET 1.8737 -0.2304 -0.0886
                      }
                    }
                  }
                }
                JOINT LeftHandPinky1
                {
                  OFFSET 7.9094 -0.601089 -3.4825
                  CHANNELS 3 Zrotation Xrotation Yrotation
                  JOINT LeftHandPinky2
                  {
                    OFFSET 2.2874 -0.477005 -0.6314
                    CHANNELS 3 Zrotation Xrotation Yrotation
                    JOINT LeftHandPinky3
                    {
                      OFFSET 1.6774 -0.349396 -0.4633
                      CHANNELS 3 Zrotation Xrotation Yrotation
                      End Site
                      {
                        OFFSET 1.4888 -0.4091 -0.3416
                      }
                    }
                  }
                }
                JOINT LeftHandThumb1
                {
                  OFFSET 1.833 -1.3875 1.3896
                  CHANNELS 3 Zrotation Xrotation Yrotation
                  JOINT LeftHandThumb2
                  {
                    OFFSET 3.4129 -1.121 2.5732
                    CHANNELS 3 Zrotation Xrotation Yrotation
                    JOINT LeftHandThumb3
                    {
                      OFFSET 2.2474 -0.804199 1.6192
                      CHANNELS 3 Zrotation Xrotation Yrotation
                      End Site
                      {
                        OFFSET 1.6527 -0.5689 1.1317
                      }
                    }
                  }
                }
              }
            }
          }
        }
        JOINT RightShoulder
        {
          OFFSET -2.2086 21.1115 7.2329
          CHANNELS 3 Zrotation Xrotation Yrotation
          JOINT RightArm
          {
            OFFSET -13.1216 3.0287 -4.9007
            CHANNELS 3 Zrotation Xrotation Yrotation
            JOINT RightForeArm
            {
              OFFSET -27.4081 -0.0973053 -0.2375
              CHANNELS 3 Zrotation Xrotation Yrotation
              JOINT RightHand
              {
                OFFSET -22.8641 0.0664063 -0.1369
                CHANNELS 3 Zrotation Xrotation Yrotation
                JOINT RightHandIndex1
                {
                  OFFSET -8.8614 0.774994 2.4612
                  CHANNELS 3 Zrotation Xrotation Yrotation
                  JOINT RightHandIndex2
                  {
                    OFFSET -3.3146 -0.808304 0.5841
                    CHANNELS 3 Zrotation Xrotation Yrotation
                    JOINT RightHandIndex3
                    {
                      OFFSET -2.2628 -0.552002 0.3989
                      CHANNELS 3 Zrotation Xrotation Yrotation
                      End Site
                      {
                        OFFSET -1.6102 -0.4807 0.2612
                      }
                    }
                  }
                }
                JOINT RightHandMiddle1
                {
                  OFFSET -8.9937 0.894989 0.2143
                  CHANNELS 3 Zrotation Xrotation Yrotation
                  JOINT RightHandMiddle2
                  {
                    OFFSET -4.0984 0.0113983 -0.0242
                    CHANNELS 3 Zrotation Xrotation Yrotation
                    JOINT RightHandMiddle3
                    {
                      OFFSET -2.2716 0.00691223 -0.0138001
                      CHANNELS 3 Zrotation Xrotation Yrotation
                      End Site
                      {
                        OFFSET -2.0404 -0.1441 0.0027
                      }
                    }
                  }
                }
                JOINT RightHandRing1
                {
                  OFFSET -8.5234 0.597198 -2.0164
                  CHANNELS 3 Zrotation Xrotation Yrotation
                  JOINT RightHandRing2
                  {
                    OFFSET -3.7188 -0.188309 -0.2328
                    CHANNELS 3 Zrotation Xrotation Yrotation
                    JOINT RightHandRing3
                    {
                      OFFSET -2.1191 -0.106598 -0.1332
                      CHANNELS 3 Zrotation Xrotation Yrotation
                      End Site
                      {
                        OFFSET -1.8737 -0.2304 -0.0886
                      }
                    }
                  }
                }
                JOINT RightHandPinky1
                {
                  OFFSET -7.9094 -0.601105 -3.4825
                  CHANNELS 3 Zrotation Xrotation Yrotation
                  JOINT RightHandPinky2
                  {
                    OFFSET -2.2874 -0.477005 -0.6314
                    CHANNELS 3 Zrotation Xrotation Yrotation
                    JOINT RightHandPinky3
                    {
                      OFFSET -1.6774 -0.349396 -0.4633
                      CHANNELS 3 Zrotation Xrotation Yrotation
                      End Site
                      {
                        OFFSET -1.4888 -0.4091 -0.3416
                      }
                    }
                  }
                }
                JOINT RightHandThumb1
                {
                  OFFSET -1.833 -1.38751 1.3896
                  CHANNELS 3 Zrotation Xrotation Yrotation
                  JOINT RightHandThumb2
                  {
                    OFFSET -3.41299 -1.12099 2.5732
                    CHANNELS 3 Zrotation Xrotation Yrotation
                    JOINT RightHandThumb3
                    {
                      OFFSET -2.24741 -0.804108 1.6192
                      CHANNELS 3 Zrotation Xrotation Yrotation
                      End Site
                      {
                        OFFSET -1.6527 -0.5689 1.1317
                      }
                    }
                  }
                }
              }
            }
          }
        }
      }
    }
  }
  JOINT RightUpLeg
  {
    OFFSET -9.1966 3.8861 -0.7581
    CHANNELS 3 Zrotation Xrotation Yrotation
    JOINT RightLeg
    {
      OFFSET -0.7359 -41.0265 0
      CHANNELS 3 Zrotation Xrotation Yrotation
      JOINT RightFoot
      {
        OFFSET 0 -40.2855 0
        CHANNELS 3 Zrotation Xrotation Yrotation
        JOINT RightToeBase
        {
          OFFSET 0 -5.6122 11.7359
          CHANNELS 3 Zrotation Xrotation Yrotation
          End Site
          {
            OFFSET 0 0 7.8731
          }
        }
      }
    }
  }
  JOINT LeftUpLeg
  {
    OFFSET 9.1965 3.8864 -0.7581
    CHANNELS 3 Zrotation Xrotation Yrotation
    JOINT LeftLeg
    {
      OFFSET 0.7359 -41.0268 0
      CHANNELS 3 Zrotation Xrotation Yrotation
      JOINT LeftFoot
      {
        OFFSET 0 -40.2855 0
        CHANNELS 3 Zrotation Xrotation Yrotation
        JOINT LeftToeBase
        {
          OFFSET 0 -5.6122 11.7359
          CHANNELS 3 Zrotation Xrotation Yrotation
          End Site
          {
            OFFSET 0 0 7.8731
          }
        }
      }
    }
  }
}
MOTION
Frames:	5
Frame Time:	0.0333333
5.84602e-005 68.8428 3.50346 0 0 -0 0 0 -0 0 0 -0 0 0 -0 0 0 -0 0 0 -0 0 0 -0 0 0 -0 0 0 -0 0 0 -0 0 0 -0 0 0 -0 0 0 -0 0 0 -0 -0.0146107 -8.87603e-005 -2.63497e-007 2.99804e-018 -2.42657e-020 -1.42182e-022 0 0 -0 -0.0187562 -0.001176 5.858e-005 5.06224e-018 3.88251e-019 1.21329e-020 0 0 -0 -0.012269 -0.00324817 0.000675346 -1.74678e-018 3.88251e-019 -0 0 0 -0 0 0 -0 0 0 -0 0 0 -0 0 0 -0 0 0 -0 0 0 -0 0 0 -0 0 0 -0 0 0 -0 0 0 -0 0.0149955 -9.10982e-005 2.64101e-007 -9.69331e-018 1.21329e-020 -4.7394e-023 0 0 -0 0.0189956 -0.00119102 -5.96516e-005 -5.41541e-019 0 2.42657e-020 0 0 -0 0.0122698 -0.00324857 -0.000673756 -2.00796e-019 0 -1.94126e-019 0 0 -0 0 0 -0 0 0 -0 3.39842 1.33031 -0.0637918 -5.65207e-008 0.834868 -0.000436188 -3.39935 -2.16518 -0.0642563 -8.89002e-024 -1.18485e-023 -1.48106e-024 -3.39844 1.35642 0.0640283 -3.18788e-007 0.782166 -0.000588827 3.39931 -2.13858 0.0634662 1.1399e-023 0 -0 
42.6827 -9.21476 7.48233 -0 -26.8531 -0 -0.0114521 -3.20733 -0.140325 -0.0308589 -6.41463 -0.281958 -0.0308589 -6.41465 -0.281958 7.67486e-007 19.2502 -2.44665e-006 5.57471e-008 9.51859 6.97222e-008 -15.0542 15.1166 3.62435 -72.8694 -8.80957 -44.7086 19.4242 31.8479 -25.6046 -61.3675 11.6285 8.34485 -8.93781e-007 6.49681e-007 6.44972e-007 5.95854e-007 -4.3312e-007 -4.29981e-007 2.97927e-007 -2.1656e-007 -2.14991e-007 -8.93781e-007 6.49681e-007 6.44972e-007 -0.014553 -8.77426e-005 -5.77737e-006 2.76759e-007 -1.62749e-006 1.00128e-006 -8.93781e-007 6.49681e-007 6.44972e-007 -0.0187801 -0.00117815 5.88772e-005 2.97922e-007 -2.16525e-007 -2.15029e-007 -8.93781e-007 6.49681e-007 6.44972e-007 -0.0123217 -0.00327073 0.000679633 2.97918e-007 -2.16539e-007 -2.15022e-007 -8.93781e-007 6.49681e-007 6.44972e-007 5.95854e-007 -4.3312e-007 -4.29981e-007 2.97927e-007 -2.1656e-007 -2.14991e-007 15.0713 14.8233 -3.36662 72.4798 -9.0347 44.3336 -19.9029 31.5886 26.1777 61.9125 11.6913 -8.89331 5.90635e-007 4.40126e-007 -4.30505e-007 -2.95318e-007 -2.20063e-007 2.15253e-007 5.90635e-007 4.40126e-007 -4.30505e-007 5.90635e-007 4.40126e-007 -4.30505e-007 0.0149636 -8.40534e-005 8.38186e-006 5.90631e-007 4.40069e-007 -4.30563e-007 5.90635e-007 4.40126e-007 -4.30505e-007 0.0189738 -0.00119532 -5.83182e-005 5.90625e-007 4.40055e-007 -4.30584e-007 5.90635e-007 4.40126e-007 -4.30505e-007 0.0122361 -0.00323795 -0.000673136 5.90617e-007 4.40084e-007 -4.30569e-007 5.90635e-007 4.40126e-007 -4.30505e-007 -2.95318e-007 -2.20063e-007 2.15253e-007 5.90635e-007 4.40126e-007 -4.30505e-007 -55.4594 -44.5327 -126.748 2.02431 54.0739 -3.23152 -3.45677 16.086 -7.0522 -3.53113e-031 6.36111e-015 3.18055e-015 55.451 -44.545 126.717 -2.06771 54.0819 3.23937 3.45515 16.0932 7.05993 -5.40558e-007 -4.21888e-006 3.11385e-007 
39.7391 -3.92481 7.03496 -0 -25.0011 -0 -0.0120595 -2.65935 -0.130306 -0.0302298 -5.31857 -0.261596 -0.0302298 -5.31857 -0.261596 -1.24232e-006 17.4757 1.06905e-006 6.52447e-008 8.05573 -4.37904e-008 -13.5188 12.8549 2.23013 -67.083 -8.99291 -41.7142 16.6406 30.198 -22.6414 -56.5532 10.6943 7.03748 1.94963e-006 -1.65355e-006 -1.54193e-006 2.78519e-006 -2.36222e-006 -2.20276e-006 5.57038e-007 -4.72444e-007 -4.40552e-007 1.94963e-006 -1.65355e-006 -1.54193e-006 -0.0146031 -9.40871e-005 7.7773e-006 5.57033e-007 -4.72388e-007 -4.40613e-007 1.94963e-006 -1.65355e-006 -1.54193e-006 -0.0187247 -0.00118661 6.4388e-005 5.57027e-007 -4.72373e-007 -4.40635e-007 1.94963e-006 -1.65355e-006 -1.54193e-006 -0.0122596 -0.00324976 0.000672286 3.18405e-007 -1.46156e-006 1.62471e-007 1.94963e-006 -1.65355e-006 -1.54193e-006 2.78519e-006 -2.36222e-006 -2.20276e-006 5.57038e-007 -4.72444e-007 -4.40552e-007 13.5634 12.6057 -1.97427 66.7084 -9.2129 41.362 -17.0661 29.9818 23.165 57.0239 10.7446 -7.51788 2.75816e-007 2.39327e-007 -2.20521e-007 -3.08973e-031 -5.56597e-015 -3.18055e-015 5.51632e-007 4.78653e-007 -4.41043e-007 2.75816e-007 2.39327e-007 -2.20521e-007 0.0149678 -9.00049e-005 3.37668e-006 5.51627e-007 4.78596e-007 -4.41106e-007 2.75816e-007 2.39327e-007 -2.20521e-007 0.0190207 -0.00119173 -6.02303e-005 5.51622e-007 4.78581e-007 -4.41128e-007 2.75816e-007 2.39327e-007 -2.20521e-007 0.0122542 -0.00324149 -0.000676008 5.51613e-007 4.7861e-007 -4.4111e-007 2.75816e-007 2.39327e-007 -2.20521e-007 -3.08973e-031 -5.56597e-015 -3.18055e-015 5.51632e-007 4.78653e-007 -4.41043e-007 -52.6078 -50.948 -121.989 1.89414 50.1669 -2.94159 -3.54254 14.7442 -6.53678 -3.18055e-015 9.54166e-015 1.59028e-015 52.5931 -50.957 121.953 -1.93269 50.1711 2.94574 3.54156 14.7511 6.54383 -3.18055e-015 -3.18055e-015 4.77083e-015 
39.7391 -3.92577 6.89468 -0 -25.0011 -0 -0.0134295 -2.35064 -0.130109 -0.0322475 -4.70123 -0.261101 -0.0322475 -4.70122 -0.261101 -2.83245e-006 17.0573 3.68172e-006 -4.46299e-008 7.29937 1.74953e-007 -13.1357 11.7012 1.18577 -66.796 -9.34422 -41.8406 16.2584 30.3637 -21.9977 -56.1139 10.551 6.37402 -5.56757e-007 4.72949e-007 4.40348e-007 -8.35135e-007 7.09424e-007 6.60522e-007 -8.35135e-007 7.09423e-007 6.60522e-007 -5.56757e-007 4.72949e-007 4.40348e-007 -0.0145989 -8.10094e-005 -3.69625e-006 -5.92916e-007 1.69968e-006 6.5577e-008 -5.56757e-007 4.72949e-007 4.40348e-007 -0.0187642 -0.00117941 4.81406e-005 -8.35119e-007 7.09316e-007 6.60646e-007 -5.56757e-007 4.72949e-007 4.40348e-007 -0.0122242 -0.0032366 0.000677753 -8.35107e-007 7.0936e-007 6.60621e-007 -5.56757e-007 4.72949e-007 4.40348e-007 -8.35135e-007 7.09424e-007 6.60522e-007 -8.35135e-007 7.09423e-007 6.60522e-007 13.2014 11.4752 -0.912649 66.4173 -9.5728 41.4879 -16.6758 30.157 22.5126 56.5579 10.5911 -6.82788 1.37834e-006 1.19791e-006 -1.10211e-006 -3.31043e-031 -3.97569e-015 -4.77083e-015 2.75668e-007 2.39582e-007 -2.20422e-007 1.37834e-006 1.19791e-006 -1.10211e-006 0.0149982 -9.32376e-005 4.49519e-006 2.75666e-007 2.39553e-007 -2.20453e-007 1.37834e-006 1.19791e-006 -1.10211e-006 0.0190158 -0.00119179 -6.18066e-005 2.75663e-007 2.39546e-007 -2.20464e-007 1.37834e-006 1.19791e-006 -1.10211e-006 0.0122774 -0.00324334 -0.000667985 2.75659e-007 2.3956e-007 -2.20455e-007 1.37834e-006 1.19791e-006 -1.10211e-006 -3.31043e-031 -3.97569e-015 -4.77083e-015 2.75668e-007 2.39582e-007 -2.20422e-007 -52.5875 -50.9547 -121.958 1.96164 49.7067 -2.97627 -3.54435 14.7553 -6.53618 2.26663e-006 -4.90185e-007 4.21571e-006 52.5727 -50.9637 121.922 -1.99889 49.7081 2.97771 3.54337 14.7624 6.54325 9.23946e-007 -1.86255e-006 2.35366e-006 
39.7391 -3.92674 6.75439 -0 -25.0011 -0 -0.014809 -2.03973 -0.129855 -0.0342798 -4.07939 -0.260487 -0.0342798 -4.0794 -0.260487 -1.06587e-006 16.6384 4.26498e-006 5.52488e-008 6.54121 -2.09821e-008 -12.775 10.5389 0.151711 -66.5094 -9.69622 -41.9653 15.8735 30.5258 -21.3516 -55.6764 10.4028 5.71175 5.56515e-007 -4.73352e-007 -4.40203e-007 -9.54166e-015 0 -2.38542e-015 -2.78257e-007 2.36676e-007 2.20102e-007 5.56515e-007 -4.73352e-007 -4.40203e-007 -0.0146232 -9.1301e-005 6.45536e-007 -2.78255e-007 2.36648e-007 2.20132e-007 5.56515e-007 -4.73352e-007 -4.40203e-007 -0.0187858 -0.00118094 6.05222e-005 -2.78252e-007 2.3664e-007 2.20143e-007 5.56515e-007 -4.73352e-007 -4.40203e-007 -0.0122966 -0.00325939 0.000674219 -2.78248e-007 2.36655e-007 2.20135e-007 5.56515e-007 -4.73352e-007 -4.40203e-007 -9.54166e-015 0 -2.38542e-015 -2.78257e-007 2.36676e-007 2.20102e-007 12.8617 10.3364 0.139364 66.1267 -9.93343 41.6121 -16.2826 30.3284 21.8575 56.0939 10.4321 -6.13919 -5.51083e-007 -4.79569e-007 4.40704e-007 -5.51083e-007 -4.79569e-007 4.40704e-007 -5.51083e-007 -4.79569e-007 4.40704e-007 -5.51083e-007 -4.79569e-007 4.40704e-007 0.0149564 -8.60876e-005 1.67782e-007 -5.51078e-007 -4.79512e-007 4.40767e-007 -5.51083e-007 -4.79569e-007 4.40704e-007 0.0190539 -0.0011948 -5.22738e-005 -5.51072e-007 -4.79497e-007 4.40789e-007 -5.51083e-007 -4.79569e-007 4.40704e-007 0.0122429 -0.00323956 -0.000673782 -5.51064e-007 -4.79526e-007 4.4077e-007 -5.51083e-007 -4.79569e-007 4.40704e-007 -5.51083e-007 -4.79569e-007 4.40704e-007 -5.51083e-007 -4.79569e-007 4.40704e-007 -52.5669 -50.9615 -121.926 2.02782 49.2459 -3.0096 -3.54611 14.7667 -6.5356 0 0 -1.59028e-015 52.552 -50.9705 121.89 -2.06377 49.2445 3.00845 3.54512 14.7738 6.54267 -1.39272e-006 -4.08292e-006 5.38186e-006 
